<svg xmlns="http://www.w3.org/2000/svg" xmlns:xlink="http://www.w3.org/1999/xlink" width="500" zoomAndPan="magnify" viewBox="0 0 375 374.999991" height="500" preserveAspectRatio="xMidYMid meet" version="1.0"><defs><clipPath id="21c90788e0"><path d="M 66 181 L 222 181 L 222 337.175781 L 66 337.175781 Z M 66 181 " clip-rule="nonzero"/></clipPath><clipPath id="53d53d214d"><path d="M 191 67 L 347.394531 67 L 347.394531 224 L 191 224 Z M 191 67 " clip-rule="nonzero"/></clipPath></defs><g clip-path="url(#21c90788e0)"><path fill="#bc2725" d="M 78.386719 224.089844 C 91.515625 199.714844 114.191406 181.890625 143.835938 181.890625 C 165.464844 181.890625 183.796875 188.234375 197.902344 202.476562 C 211.800781 216.507812 221.628906 238.285156 221.628906 259.5625 C 221.628906 283.292969 212.195312 302.0625 195.382812 316.3125 C 181.816406 327.808594 163.011719 337.234375 143.835938 337.234375 C 128.671875 337.234375 117.007812 330.410156 105.039062 322.90625 C 83.117188 309.164062 66.042969 287.296875 66.042969 259.5625 C 66.042969 246.285156 72.496094 235.023438 78.386719 224.089844 Z M 78.386719 224.089844 " fill-opacity="1" fill-rule="nonzero"/></g><path fill="#a92b24" d="M 118.4375 203.53125 C 123.039062 199.394531 135.136719 195.273438 139.28125 199.867188 C 143.421875 204.460938 138.050781 216.042969 133.449219 220.179688 C 128.847656 224.316406 119.035156 230.304688 114.890625 225.710938 C 110.75 221.117188 113.835938 207.667969 118.4375 203.53125 Z M 118.4375 203.53125 " fill-opacity="1" fill-rule="nonzero"/><path fill="#a92b24" d="M 136.160156 286.960938 C 140.761719 282.824219 152.859375 278.699219 157.003906 283.296875 C 161.144531 287.890625 155.773438 299.472656 151.171875 303.609375 C 146.570312 307.742188 136.757812 313.734375 132.613281 309.140625 C 128.472656 304.542969 131.558594 291.097656 136.160156 286.960938 Z M 136.160156 286.960938 " fill-opacity="1" fill-rule="nonzero"/><path fill="#a92b24" d="M 181.757812 243.859375 C 186.355469 239.722656 198.457031 235.597656 202.597656 240.191406 C 206.742188 244.785156 201.367188 256.367188 196.765625 260.503906 C 192.164062 264.640625 182.351562 270.628906 178.210938 266.035156 C 174.066406 261.441406 177.15625 247.996094 181.757812 243.859375 Z M 181.757812 243.859375 " fill-opacity="1" fill-rule="nonzero"/><path fill="#a92b24" d="M 200.707031 286.636719 C 202.386719 285.128906 206.792969 283.628906 208.304688 285.300781 C 209.8125 286.976562 207.855469 291.195312 206.179688 292.703125 C 204.5 294.210938 200.925781 296.394531 199.414062 294.71875 C 197.90625 293.046875 199.03125 288.144531 200.707031 286.636719 Z M 200.707031 286.636719 " fill-opacity="1" fill-rule="nonzero"/><path fill="#a92b24" d="M 179.101562 313.113281 C 180.777344 311.609375 185.1875 310.105469 186.695312 311.777344 C 188.207031 313.453125 186.25 317.675781 184.570312 319.179688 C 182.894531 320.6875 179.316406 322.871094 177.808594 321.195312 C 176.296875 319.523438 177.425781 314.621094 179.101562 313.113281 Z M 179.101562 313.113281 " fill-opacity="1" fill-rule="nonzero"/><path fill="#a92b24" d="M 99.019531 206.34375 C 100.695312 204.835938 105.105469 203.332031 106.613281 205.007812 C 108.121094 206.679688 106.164062 210.902344 104.488281 212.410156 C 102.8125 213.917969 99.234375 216.097656 97.726562 214.425781 C 96.214844 212.75 97.339844 207.851562 99.019531 206.34375 Z M 99.019531 206.34375 " fill-opacity="1" fill-rule="nonzero"/><path fill="#a92b24" d="M 95.191406 256.808594 C 98.914062 253.464844 108.699219 250.128906 112.050781 253.84375 C 115.402344 257.558594 111.054688 266.929688 107.332031 270.273438 C 103.613281 273.621094 95.675781 278.464844 92.324219 274.746094 C 88.972656 271.03125 91.46875 260.15625 95.191406 256.808594 Z M 95.191406 256.808594 " fill-opacity="1" fill-rule="nonzero"/><path fill="#e07674" d="M 162.089844 205.390625 C 168.605469 203.398438 175.511719 209.039062 177.503906 215.542969 C 179.496094 222.050781 174.835938 219.824219 168.320312 221.8125 C 161.804688 223.804688 155.886719 227.285156 153.894531 220.78125 C 151.902344 214.273438 155.574219 207.378906 162.089844 205.390625 Z M 162.089844 205.390625 " fill-opacity="1" fill-rule="nonzero"/><path fill="#e07674" d="M 117.097656 275.863281 C 118.398438 269.183594 126.625 265.746094 133.3125 267.042969 C 140.003906 268.339844 135.847656 271.402344 134.546875 278.082031 C 133.246094 284.761719 133.546875 291.613281 126.859375 290.316406 C 120.171875 289.015625 115.796875 282.542969 117.097656 275.863281 Z M 117.097656 275.863281 " fill-opacity="1" fill-rule="nonzero"/><path fill="#e07674" d="M 95 289.648438 C 93.683594 286.691406 95.945312 283.113281 98.90625 281.796875 C 101.863281 280.480469 101.082031 282.804688 102.402344 285.761719 C 103.71875 288.714844 105.707031 291.300781 102.746094 292.617188 C 99.789062 293.933594 96.316406 292.601562 95 289.648438 Z M 95 289.648438 " fill-opacity="1" fill-rule="nonzero"/><path fill="#e07674" d="M 180.5625 283.160156 C 187.078125 281.167969 193.984375 286.808594 195.976562 293.316406 C 197.96875 299.820312 193.308594 297.59375 186.792969 299.585938 C 180.277344 301.574219 174.359375 305.054688 172.367188 298.550781 C 170.375 292.042969 174.046875 285.148438 180.5625 283.160156 Z M 180.5625 283.160156 " fill-opacity="1" fill-rule="nonzero"/><path fill="#e07674" d="M 86.308594 232.890625 C 86.902344 227.261719 93.472656 223.8125 99.109375 224.40625 C 104.75 224.996094 101.527344 227.835938 100.933594 233.464844 C 100.339844 239.09375 101.089844 244.753906 95.449219 244.160156 C 89.8125 243.570312 85.714844 238.519531 86.308594 232.890625 Z M 86.308594 232.890625 " fill-opacity="1" fill-rule="nonzero"/><path fill="#e07674" d="M 157.210938 239.835938 C 161.023438 238.671875 165.066406 241.972656 166.230469 245.78125 C 167.398438 249.585938 164.671875 248.285156 160.855469 249.449219 C 157.042969 250.613281 153.578125 252.652344 152.414062 248.84375 C 151.25 245.035156 153.398438 241 157.210938 239.835938 Z M 157.210938 239.835938 " fill-opacity="1" fill-rule="nonzero"/><path fill="#fabfb3" d="M 129.273438 234.402344 C 131.839844 232.175781 138.992188 229.613281 141.222656 232.175781 C 143.453125 234.738281 139.917969 241.453125 137.351562 243.679688 C 134.789062 245.90625 127.921875 248.214844 125.691406 245.65625 C 123.460938 243.09375 126.707031 236.628906 129.273438 234.402344 Z M 129.273438 234.402344 " fill-opacity="1" fill-rule="nonzero"/><path fill="#fabfb3" d="M 160.785156 309.5625 C 164.109375 308.855469 171.609375 310.082031 172.316406 313.398438 C 173.023438 316.71875 166.671875 320.882812 163.347656 321.589844 C 160.023438 322.296875 152.898438 320.992188 152.191406 317.671875 C 151.484375 314.355469 157.460938 310.269531 160.785156 309.5625 Z M 160.785156 309.5625 " fill-opacity="1" fill-rule="nonzero"/><path fill="#fabfb3" d="M 203.929688 263.679688 C 206.246094 261.195312 213.09375 257.902344 215.582031 260.21875 C 218.066406 262.53125 215.253906 269.582031 212.9375 272.0625 C 210.617188 274.546875 204.03125 277.558594 201.546875 275.246094 C 199.058594 272.929688 201.613281 266.160156 203.929688 263.679688 Z M 203.929688 263.679688 " fill-opacity="1" fill-rule="nonzero"/><path fill="#fabfb3" d="M 145.261719 190.421875 C 147.539062 189.410156 153.101562 189.148438 154.113281 191.417969 C 155.125 193.691406 151.207031 197.640625 148.933594 198.652344 C 146.65625 199.664062 141.351562 199.816406 140.335938 197.542969 C 139.324219 195.269531 142.988281 191.433594 145.261719 190.421875 Z M 145.261719 190.421875 " fill-opacity="1" fill-rule="nonzero"/><path fill="#e07674" d="M 189.742188 216.277344 C 192.019531 215.265625 197.582031 215 198.59375 217.273438 C 199.609375 219.546875 195.6875 223.496094 193.414062 224.507812 C 191.136719 225.519531 185.832031 225.667969 184.820312 223.394531 C 183.804688 221.125 187.46875 217.289062 189.742188 216.277344 Z M 189.742188 216.277344 " fill-opacity="1" fill-rule="nonzero"/><path fill="#e07674" d="M 112.820312 237.089844 C 115.097656 236.078125 120.660156 235.8125 121.671875 238.085938 C 122.6875 240.355469 118.765625 244.308594 116.492188 245.320312 C 114.214844 246.332031 108.910156 246.480469 107.894531 244.210938 C 106.882812 241.9375 110.546875 238.101562 112.820312 237.089844 Z M 112.820312 237.089844 " fill-opacity="1" fill-rule="nonzero"/><path fill="#e07674" d="M 70.347656 255.472656 C 70.867188 253.039062 73.921875 248.390625 76.359375 248.910156 C 78.796875 249.425781 79.695312 254.914062 79.175781 257.347656 C 78.660156 259.78125 75.660156 264.15625 73.222656 263.636719 C 70.789062 263.121094 69.832031 257.90625 70.347656 255.472656 Z M 70.347656 255.472656 " fill-opacity="1" fill-rule="nonzero"/><path fill="#e07674" d="M 160.195312 274.203125 C 160.714844 271.773438 163.769531 267.121094 166.207031 267.640625 C 168.640625 268.15625 169.539062 273.644531 169.023438 276.078125 C 168.503906 278.511719 165.507812 282.886719 163.070312 282.367188 C 160.632812 281.851562 159.675781 276.636719 160.195312 274.203125 Z M 160.195312 274.203125 " fill-opacity="1" fill-rule="nonzero"/><path fill="#e07674" d="M 157.105469 314.175781 C 160.082031 312.976562 167.257812 312.886719 168.460938 315.855469 C 169.664062 318.828125 164.4375 323.742188 161.460938 324.941406 C 158.484375 326.144531 151.640625 326.097656 150.4375 323.125 C 149.238281 320.15625 154.128906 315.375 157.105469 314.175781 Z M 157.105469 314.175781 " fill-opacity="1" fill-rule="nonzero"/><path fill="#fabfb3" d="M 120.121094 304.070312 C 122.320312 305.238281 125.953125 309.453125 124.785156 311.648438 C 123.613281 313.84375 118.082031 313.195312 115.882812 312.027344 C 113.683594 310.859375 110.296875 306.777344 111.46875 304.582031 C 112.636719 302.382812 117.921875 302.902344 120.121094 304.070312 Z M 120.121094 304.070312 " fill-opacity="1" fill-rule="nonzero"/><g clip-path="url(#53d53d214d)"><path fill="#bc2725" d="M 204.050781 110.027344 C 217.179688 85.652344 239.855469 67.828125 269.5 67.828125 C 291.128906 67.828125 309.460938 74.171875 323.566406 88.417969 C 337.460938 102.449219 347.289062 124.222656 347.289062 145.5 C 347.289062 169.230469 337.859375 188 321.046875 202.25 C 307.480469 213.75 288.671875 223.171875 269.5 223.171875 C 254.335938 223.171875 246.980469 208.734375 235.011719 201.234375 C 213.089844 187.492188 191.707031 173.238281 191.707031 145.5 C 191.707031 132.222656 198.160156 120.964844 204.050781 110.027344 Z M 204.050781 110.027344 " fill-opacity="1" fill-rule="nonzero"/></g><path fill="#a92b24" d="M 244.101562 89.472656 C 248.703125 85.335938 260.800781 81.214844 264.945312 85.808594 C 269.085938 90.402344 263.714844 101.984375 259.113281 106.121094 C 254.511719 110.257812 244.699219 116.246094 240.554688 111.652344 C 236.414062 107.058594 239.5 93.609375 244.101562 89.472656 Z M 244.101562 89.472656 " fill-opacity="1" fill-rule="nonzero"/><path fill="#a92b24" d="M 261.824219 172.902344 C 266.425781 168.765625 278.523438 164.644531 282.664062 169.238281 C 286.808594 173.832031 281.433594 185.414062 276.835938 189.550781 C 272.234375 193.6875 262.417969 199.675781 258.277344 195.082031 C 254.132812 190.488281 257.222656 177.039062 261.824219 172.902344 Z M 261.824219 172.902344 " fill-opacity="1" fill-rule="nonzero"/><path fill="#a92b24" d="M 307.417969 129.800781 C 312.019531 125.664062 324.117188 121.539062 328.261719 126.132812 C 332.40625 130.726562 327.03125 142.308594 322.429688 146.445312 C 317.828125 150.582031 308.015625 156.570312 303.875 151.976562 C 299.730469 147.382812 302.820312 133.9375 307.417969 129.800781 Z M 307.417969 129.800781 " fill-opacity="1" fill-rule="nonzero"/><path fill="#a92b24" d="M 326.371094 172.578125 C 328.046875 171.074219 332.457031 169.570312 333.964844 171.242188 C 335.476562 172.917969 333.515625 177.140625 331.839844 178.644531 C 330.164062 180.152344 326.585938 182.335938 325.078125 180.660156 C 323.566406 178.988281 324.695312 174.085938 326.371094 172.578125 Z M 326.371094 172.578125 " fill-opacity="1" fill-rule="nonzero"/><path fill="#a92b24" d="M 304.761719 199.054688 C 306.441406 197.546875 310.847656 196.042969 312.359375 197.71875 C 313.867188 199.394531 311.910156 203.613281 310.234375 205.121094 C 308.554688 206.628906 304.980469 208.8125 303.46875 207.136719 C 301.960938 205.460938 303.085938 200.5625 304.761719 199.054688 Z M 304.761719 199.054688 " fill-opacity="1" fill-rule="nonzero"/><path fill="#a92b24" d="M 224.679688 92.28125 C 226.359375 90.777344 230.765625 89.273438 232.277344 90.945312 C 233.785156 92.621094 231.828125 96.839844 230.152344 98.347656 C 228.472656 99.855469 224.898438 102.039062 223.386719 100.363281 C 221.878906 98.691406 223.003906 93.789062 224.679688 92.28125 Z M 224.679688 92.28125 " fill-opacity="1" fill-rule="nonzero"/><path fill="#a92b24" d="M 220.855469 142.75 C 224.578125 139.40625 234.363281 136.070312 237.714844 139.785156 C 241.066406 143.5 236.71875 152.871094 232.996094 156.214844 C 229.277344 159.5625 221.339844 164.40625 217.988281 160.6875 C 214.636719 156.972656 217.132812 146.097656 220.855469 142.75 Z M 220.855469 142.75 " fill-opacity="1" fill-rule="nonzero"/><path fill="#e07674" d="M 287.746094 91.332031 C 294.265625 89.34375 301.167969 94.984375 303.160156 101.488281 C 305.152344 107.996094 300.496094 105.769531 293.976562 107.757812 C 287.460938 109.746094 281.542969 113.230469 279.550781 106.722656 C 277.558594 100.21875 281.230469 93.324219 287.746094 91.332031 Z M 287.746094 91.332031 " fill-opacity="1" fill-rule="nonzero"/><path fill="#e07674" d="M 242.753906 161.808594 C 244.054688 155.128906 252.28125 151.691406 258.972656 152.988281 C 265.660156 154.285156 261.503906 157.347656 260.203125 164.027344 C 258.90625 170.707031 259.207031 177.558594 252.515625 176.257812 C 245.828125 174.960938 241.453125 168.488281 242.753906 161.808594 Z M 242.753906 161.808594 " fill-opacity="1" fill-rule="nonzero"/><path fill="#e07674" d="M 220.65625 175.585938 C 219.339844 172.632812 221.605469 169.050781 224.5625 167.738281 C 227.523438 166.421875 226.742188 168.746094 228.058594 171.699219 C 229.375 174.652344 231.363281 177.242188 228.40625 178.554688 C 225.445312 179.871094 221.976562 178.542969 220.65625 175.585938 Z M 220.65625 175.585938 " fill-opacity="1" fill-rule="nonzero"/><path fill="#e07674" d="M 306.199219 169.082031 C 312.71875 167.089844 319.621094 172.730469 321.613281 179.234375 C 323.605469 185.742188 318.949219 183.515625 312.429688 185.503906 C 305.914062 187.496094 299.996094 190.976562 298.003906 184.472656 C 296.011719 177.964844 299.683594 171.070312 306.199219 169.082031 Z M 306.199219 169.082031 " fill-opacity="1" fill-rule="nonzero"/><path fill="#e07674" d="M 211.96875 118.828125 C 212.5625 113.199219 219.132812 109.753906 224.769531 110.34375 C 230.410156 110.9375 227.1875 113.773438 226.59375 119.40625 C 226 125.035156 226.75 130.691406 221.109375 130.101562 C 215.472656 129.507812 211.375 124.460938 211.96875 118.828125 Z M 211.96875 118.828125 " fill-opacity="1" fill-rule="nonzero"/><path fill="#e07674" d="M 282.871094 125.777344 C 286.6875 124.613281 290.726562 127.914062 291.894531 131.71875 C 293.058594 135.527344 290.332031 134.226562 286.519531 135.390625 C 282.703125 136.554688 279.242188 138.589844 278.074219 134.785156 C 276.910156 130.976562 279.058594 126.941406 282.871094 125.777344 Z M 282.871094 125.777344 " fill-opacity="1" fill-rule="nonzero"/><path fill="#fabfb3" d="M 254.941406 120.339844 C 257.507812 118.113281 264.660156 115.550781 266.890625 118.113281 C 269.121094 120.675781 265.585938 127.390625 263.019531 129.617188 C 260.453125 131.84375 253.589844 134.15625 251.359375 131.59375 C 249.128906 129.03125 252.375 122.566406 254.941406 120.339844 Z M 254.941406 120.339844 " fill-opacity="1" fill-rule="nonzero"/><path fill="#fabfb3" d="M 286.496094 195.46875 C 289.820312 194.761719 297.320312 195.988281 298.027344 199.304688 C 298.734375 202.625 292.382812 206.789062 289.054688 207.496094 C 285.730469 208.199219 278.605469 206.898438 277.898438 203.578125 C 277.191406 200.261719 283.171875 196.175781 286.496094 195.46875 Z M 286.496094 195.46875 " fill-opacity="1" fill-rule="nonzero"/><path fill="#fabfb3" d="M 329.597656 149.617188 C 331.914062 147.136719 338.761719 143.84375 341.246094 146.15625 C 343.734375 148.472656 340.921875 155.519531 338.601562 158.003906 C 336.285156 160.484375 329.699219 163.496094 327.214844 161.183594 C 324.726562 158.871094 327.277344 152.097656 329.597656 149.617188 Z M 329.597656 149.617188 " fill-opacity="1" fill-rule="nonzero"/><path fill="#fabfb3" d="M 270.960938 76.390625 C 273.234375 75.378906 278.800781 75.113281 279.8125 77.386719 C 280.824219 79.660156 276.90625 83.609375 274.632812 84.621094 C 272.355469 85.632812 267.046875 85.78125 266.035156 83.511719 C 265.023438 81.238281 268.683594 77.402344 270.960938 76.390625 Z M 270.960938 76.390625 " fill-opacity="1" fill-rule="nonzero"/><path fill="#e07674" d="M 315.40625 102.214844 C 317.683594 101.203125 323.246094 100.941406 324.257812 103.214844 C 325.269531 105.484375 321.351562 109.4375 319.078125 110.449219 C 316.800781 111.457031 311.496094 111.609375 310.480469 109.335938 C 309.46875 107.0625 313.132812 103.226562 315.40625 102.214844 Z M 315.40625 102.214844 " fill-opacity="1" fill-rule="nonzero"/><path fill="#e07674" d="M 238.492188 123.023438 C 240.765625 122.011719 246.332031 121.746094 247.34375 124.019531 C 248.355469 126.292969 244.4375 130.242188 242.160156 131.253906 C 239.886719 132.265625 234.578125 132.417969 233.566406 130.144531 C 232.550781 127.871094 236.214844 124.035156 238.492188 123.023438 Z M 238.492188 123.023438 " fill-opacity="1" fill-rule="nonzero"/><path fill="#e07674" d="M 195.988281 141.378906 C 196.507812 138.945312 199.5625 134.296875 202 134.8125 C 204.433594 135.332031 205.332031 140.820312 204.816406 143.25 C 204.296875 145.683594 201.296875 150.058594 198.863281 149.542969 C 196.425781 149.023438 195.46875 143.808594 195.988281 141.378906 Z M 195.988281 141.378906 " fill-opacity="1" fill-rule="nonzero"/><path fill="#e07674" d="M 285.863281 160.136719 C 286.382812 157.707031 289.441406 153.054688 291.875 153.574219 C 294.3125 154.089844 295.210938 159.578125 294.691406 162.011719 C 294.175781 164.445312 291.175781 168.820312 288.742188 168.304688 C 286.304688 167.785156 285.347656 162.570312 285.863281 160.136719 Z M 285.863281 160.136719 " fill-opacity="1" fill-rule="nonzero"/><path fill="#fabfb3" d="M 245.78125 190.011719 C 247.980469 191.179688 251.613281 195.394531 250.445312 197.589844 C 249.277344 199.785156 243.746094 199.132812 241.546875 197.96875 C 239.347656 196.800781 235.960938 192.714844 237.128906 190.519531 C 238.296875 188.324219 243.582031 188.84375 245.78125 190.011719 Z M 245.78125 190.011719 " fill-opacity="1" fill-rule="nonzero"/><path fill="#bc2725" d="M 49.285156 81.640625 C 55.503906 58.898438 70.90625 39.761719 95.511719 34.09375 C 113.46875 29.953125 129.902344 31.710938 144.34375 40.835938 C 158.570312 49.828125 170.910156 66.019531 174.992188 83.683594 C 179.546875 103.378906 175.320312 120.765625 164.097656 135.8125 C 155.042969 147.949219 132.425781 145.3125 116.507812 148.984375 C 103.921875 151.882812 101.746094 162.507812 90.371094 158.570312 C 80.167969 155.039062 75.789062 144.015625 68.007812 136.746094 C 59.90625 129.175781 48.558594 125.195312 45.84375 113.449219 C 43.296875 102.425781 46.492188 91.84375 49.285156 81.640625 Z M 49.285156 81.640625 " fill-opacity="1" fill-rule="nonzero"/><path fill="#a92b24" d="M 78.628906 56.972656 C 81.652344 52.660156 90.902344 46.917969 95.222656 49.941406 C 99.542969 52.960938 97.308594 63.601562 94.28125 67.917969 C 91.257812 72.230469 84.261719 79.078125 79.941406 76.058594 C 75.621094 73.039062 75.601562 61.285156 78.628906 56.972656 Z M 78.628906 56.972656 " fill-opacity="1" fill-rule="nonzero"/><path fill="#a92b24" d="M 109.351562 122.832031 C 112.375 118.515625 121.625 112.777344 125.945312 115.800781 C 130.265625 118.820312 128.03125 129.460938 125.003906 133.773438 C 121.980469 138.089844 114.984375 144.9375 110.664062 141.917969 C 106.34375 138.894531 106.324219 127.144531 109.351562 122.832031 Z M 109.351562 122.832031 " fill-opacity="1" fill-rule="nonzero"/><path fill="#a92b24" d="M 138.925781 78.328125 C 141.949219 74.015625 151.199219 68.277344 155.519531 71.296875 C 159.839844 74.316406 157.605469 84.960938 154.578125 89.273438 C 151.554688 93.585938 144.558594 100.4375 140.238281 97.414062 C 135.917969 94.394531 135.898438 82.644531 138.925781 78.328125 Z M 138.925781 78.328125 " fill-opacity="1" fill-rule="nonzero"/><path fill="#a92b24" d="M 162.84375 110.199219 C 163.945312 108.628906 167.316406 106.535156 168.890625 107.636719 C 170.464844 108.738281 169.652344 112.617188 168.550781 114.1875 C 167.445312 115.761719 164.898438 118.253906 163.324219 117.15625 C 161.75 116.054688 161.742188 111.773438 162.84375 110.199219 Z M 162.84375 110.199219 " fill-opacity="1" fill-rule="nonzero"/><path fill="#a92b24" d="M 143.226562 131.1875 C 144.207031 129.792969 147.191406 127.9375 148.585938 128.914062 C 149.984375 129.890625 149.261719 133.328125 148.285156 134.71875 C 147.308594 136.113281 145.046875 138.324219 143.652344 137.347656 C 142.257812 136.375 142.25 132.578125 143.226562 131.1875 Z M 143.226562 131.1875 " fill-opacity="1" fill-rule="nonzero"/><path fill="#a92b24" d="M 63.03125 63.007812 C 64.132812 61.4375 67.503906 59.347656 69.078125 60.445312 C 70.652344 61.546875 69.839844 65.425781 68.734375 66.996094 C 67.632812 68.570312 65.082031 71.066406 63.507812 69.964844 C 61.933594 68.863281 61.929688 64.582031 63.03125 63.007812 Z M 63.03125 63.007812 " fill-opacity="1" fill-rule="nonzero"/><path fill="#a92b24" d="M 69.578125 105.664062 C 72.023438 102.171875 79.507812 97.53125 83 99.972656 C 86.496094 102.417969 84.6875 111.027344 82.242188 114.515625 C 79.792969 118.003906 74.132812 123.542969 70.640625 121.101562 C 67.144531 118.65625 67.128906 109.152344 69.578125 105.664062 Z M 69.578125 105.664062 " fill-opacity="1" fill-rule="nonzero"/><path fill="#e07674" d="M 115.238281 50.179688 C 120.269531 47.28125 127.082031 50.640625 129.984375 55.660156 C 132.886719 60.679688 128.59375 59.722656 123.566406 62.621094 C 118.539062 65.519531 114.292969 69.542969 111.390625 64.523438 C 108.488281 59.503906 110.210938 53.078125 115.238281 50.179688 Z M 115.238281 50.179688 " fill-opacity="1" fill-rule="nonzero"/><path fill="#e07674" d="M 91.433594 117.304688 C 91.230469 111.511719 97.402344 107.082031 103.203125 106.878906 C 109.003906 106.675781 106.140625 110.015625 106.34375 115.808594 C 106.546875 121.601562 108.113281 127.230469 102.3125 127.433594 C 96.507812 127.636719 91.636719 123.097656 91.433594 117.304688 Z M 91.433594 117.304688 " fill-opacity="1" fill-rule="nonzero"/><path fill="#e07674" d="M 90.222656 131.070312 C 88.75 129.121094 89.808594 126.105469 91.761719 124.636719 C 93.714844 123.164062 93.535156 125.007812 95.003906 126.957031 C 96.476562 128.910156 98.378906 130.472656 96.425781 131.941406 C 94.472656 133.414062 91.695312 133.023438 90.222656 131.070312 Z M 90.222656 131.070312 " fill-opacity="1" fill-rule="nonzero"/><path fill="#e07674" d="M 145.480469 111.183594 C 150.507812 108.285156 157.324219 111.644531 160.226562 116.664062 C 163.128906 121.683594 158.832031 120.730469 153.804688 123.628906 C 148.777344 126.523438 144.535156 130.546875 141.632812 125.527344 C 138.730469 120.507812 140.453125 114.082031 145.480469 111.183594 Z M 145.480469 111.183594 " fill-opacity="1" fill-rule="nonzero"/><path fill="#e07674" d="M 57.597656 87.503906 C 57.007812 82.714844 61.800781 78.597656 66.59375 78.007812 C 71.386719 77.421875 69.257812 80.394531 69.847656 85.179688 C 70.433594 89.96875 72.140625 94.519531 67.347656 95.109375 C 62.554688 95.695312 58.183594 92.289062 57.597656 87.503906 Z M 57.597656 87.503906 " fill-opacity="1" fill-rule="nonzero"/><path fill="#e07674" d="M 117.828125 79.738281 C 120.769531 78.042969 124.757812 80.007812 126.457031 82.945312 C 128.152344 85.882812 125.640625 85.324219 122.699219 87.019531 C 119.757812 88.714844 117.273438 91.070312 115.574219 88.132812 C 113.875 85.195312 114.886719 81.433594 117.828125 79.738281 Z M 117.828125 79.738281 " fill-opacity="1" fill-rule="nonzero"/><path fill="#fabfb3" d="M 93.566406 80.5625 C 95.269531 78.222656 100.714844 74.726562 103.058594 76.425781 C 105.402344 78.125 103.753906 84.378906 102.054688 86.71875 C 100.351562 89.054688 95.097656 92.289062 92.753906 90.589844 C 90.410156 88.890625 91.863281 82.898438 93.566406 80.5625 Z M 93.566406 80.5625 " fill-opacity="1" fill-rule="nonzero"/><path fill="#fabfb3" d="M 161.148438 90.574219 C 162.59375 88.070312 167.648438 84.027344 170.15625 85.472656 C 172.660156 86.917969 171.679688 93.308594 170.234375 95.8125 C 168.785156 98.316406 163.898438 102.078125 161.390625 100.632812 C 158.882812 99.1875 159.699219 93.078125 161.148438 90.574219 Z M 161.148438 90.574219 " fill-opacity="1" fill-rule="nonzero"/><path fill="#fabfb3" d="M 98.386719 40.960938 C 100.082031 39.6875 104.648438 38.402344 105.925781 40.09375 C 107.203125 41.785156 104.707031 45.816406 103.011719 47.089844 C 101.316406 48.367188 96.941406 49.507812 95.664062 47.8125 C 94.386719 46.121094 96.691406 42.234375 98.386719 40.960938 Z M 98.386719 40.960938 " fill-opacity="1" fill-rule="nonzero"/><path fill="#e07674" d="M 140.269531 53.910156 C 141.964844 52.632812 146.53125 51.351562 147.808594 53.042969 C 149.085938 54.734375 146.589844 58.765625 144.894531 60.039062 C 143.203125 61.3125 138.824219 62.453125 137.546875 60.761719 C 136.269531 59.070312 138.574219 55.183594 140.269531 53.910156 Z M 140.269531 53.910156 " fill-opacity="1" fill-rule="nonzero"/><path fill="#e07674" d="M 80.386719 85.878906 C 82.082031 84.601562 86.648438 83.320312 87.925781 85.011719 C 89.203125 86.703125 86.707031 90.734375 85.011719 92.007812 C 83.316406 93.285156 78.941406 94.421875 77.664062 92.730469 C 76.386719 91.039062 78.691406 87.152344 80.386719 85.878906 Z M 80.386719 85.878906 " fill-opacity="1" fill-rule="nonzero"/><path fill="#e07674" d="M 48.671875 109.277344 C 48.632812 107.160156 50.277344 102.714844 52.398438 102.679688 C 54.519531 102.640625 56.320312 107.027344 56.355469 109.144531 C 56.394531 111.261719 54.746094 115.46875 52.625 115.503906 C 50.5 115.542969 48.707031 111.398438 48.671875 109.277344 Z M 48.671875 109.277344 " fill-opacity="1" fill-rule="nonzero"/><path fill="#e07674" d="M 126.839844 107.636719 C 126.804688 105.519531 128.449219 101.074219 130.570312 101.039062 C 132.691406 101 134.488281 105.382812 134.527344 107.503906 C 134.5625 109.621094 132.914062 113.828125 130.792969 113.863281 C 128.671875 113.898438 126.878906 109.753906 126.839844 107.636719 Z M 126.839844 107.636719 " fill-opacity="1" fill-rule="nonzero"/></svg>