<svg xmlns="http://www.w3.org/2000/svg" xmlns:xlink="http://www.w3.org/1999/xlink" width="500" zoomAndPan="magnify" viewBox="0 0 375 374.999991" height="500" preserveAspectRatio="xMidYMid meet" version="1.0"><defs><clipPath id="e1c67a32b0"><path d="M 259 182 L 352.847656 182 L 352.847656 217 L 259 217 Z M 259 182 " clip-rule="nonzero"/></clipPath><clipPath id="d85cc56e5b"><path d="M 159 139.558594 L 229 139.558594 L 229 175 L 159 175 Z M 159 139.558594 " clip-rule="nonzero"/></clipPath></defs><path fill="#f29500" d="M 172.125 215.351562 L 169.003906 200.296875 C 173.261719 219 200.148438 226.71875 216.464844 228.496094 C 227.347656 229.683594 238.097656 229.234375 248.730469 227.117188 C 252.121094 226.441406 255.4375 228.640625 256.136719 232.023438 L 256.707031 234.78125 C 257.0625 236.496094 256.75 238.101562 255.777344 239.558594 C 254.808594 241.015625 253.445312 241.917969 251.726562 242.25 C 231.101562 246.226562 206.378906 244.503906 188.371094 234.3125 C 180.933594 230.105469 174.140625 224.109375 172.152344 215.488281 C 172.140625 215.441406 172.132812 215.398438 172.125 215.351562 " fill-opacity="1" fill-rule="evenodd"/><path fill="#efcc54" d="M 142.929688 233.4375 L 132.886719 221.800781 C 145.703125 236.074219 172.949219 229.734375 188.070312 223.351562 C 198.152344 219.09375 207.328125 213.472656 215.585938 206.449219 C 218.222656 204.210938 222.1875 204.515625 224.445312 207.132812 L 226.285156 209.261719 C 227.429688 210.589844 227.9375 212.144531 227.796875 213.890625 C 227.65625 215.636719 226.90625 217.085938 225.566406 218.214844 C 209.480469 231.722656 187.039062 242.246094 166.351562 242.101562 C 157.808594 242.042969 148.957031 240.105469 143.027344 233.546875 C 142.992188 233.507812 142.964844 233.476562 142.929688 233.4375 " fill-opacity="1" fill-rule="evenodd"/><path fill="#de9210" d="M 207.828125 227.945312 L 221.136719 220.253906 C 204.34375 229.523438 180.695312 214.574219 168.515625 203.574219 C 160.390625 196.238281 153.574219 187.910156 148.082031 178.5625 C 146.328125 175.582031 142.484375 174.566406 139.492188 176.296875 L 137.054688 177.703125 C 135.535156 178.578125 134.546875 179.878906 134.105469 181.574219 C 133.664062 183.269531 133.894531 184.886719 134.789062 186.394531 C 145.539062 204.441406 163.273438 221.757812 182.859375 228.425781 C 190.949219 231.179688 199.945312 232.261719 207.703125 228.011719 C 207.746094 227.988281 207.78125 227.96875 207.828125 227.945312 " fill-opacity="1" fill-rule="evenodd"/><path fill="#f7b518" d="M 158.835938 252.6875 L 146.433594 243.609375 C 162.128906 254.632812 187.25 242.328125 200.550781 232.707031 C 209.417969 226.289062 217.09375 218.75 223.5625 210.046875 C 225.625 207.273438 229.558594 206.679688 232.347656 208.722656 L 234.617188 210.382812 C 236.03125 211.417969 236.875 212.816406 237.132812 214.550781 C 237.390625 216.285156 236.984375 217.867188 235.929688 219.269531 C 223.292969 236.046875 203.792969 251.347656 183.605469 255.863281 C 175.265625 257.726562 166.207031 257.832031 158.953125 252.769531 C 158.914062 252.742188 158.878906 252.71875 158.835938 252.6875 " fill-opacity="1" fill-rule="evenodd"/><path fill="#f7b518" d="M 164.605469 205.671875 L 172.460938 192.460938 C 162.335938 208.753906 134.402344 207.269531 118.398438 203.625 C 107.726562 201.191406 97.710938 197.261719 88.351562 191.789062 C 85.371094 190.042969 81.515625 191.035156 79.75 194.007812 L 78.3125 196.425781 C 77.414062 197.929688 77.1875 199.550781 77.628906 201.246094 C 78.074219 202.9375 79.0625 204.238281 80.582031 205.113281 C 98.777344 215.605469 122.710938 222.050781 143.058594 218.292969 C 151.457031 216.746094 159.835938 213.292969 164.53125 205.796875 C 164.554688 205.753906 164.578125 205.71875 164.605469 205.671875 " fill-opacity="1" fill-rule="evenodd"/><path fill="#efcc54" d="M 173.210938 232.519531 L 178.804688 220.453125 C 171.535156 235.367188 147.367188 236.5625 133.277344 234.839844 C 123.878906 233.691406 114.914062 231.195312 106.378906 227.3125 C 103.65625 226.074219 100.433594 227.269531 99.175781 229.980469 L 98.148438 232.191406 C 97.511719 233.566406 97.460938 234.980469 97.992188 236.398438 C 98.519531 237.816406 99.488281 238.847656 100.871094 239.46875 C 117.457031 246.882812 138.617188 250.308594 155.789062 245.28125 C 162.882812 243.207031 169.785156 239.496094 173.160156 232.628906 C 173.179688 232.589844 173.195312 232.558594 173.210938 232.519531 " fill-opacity="1" fill-rule="evenodd"/><path fill="#efcc54" d="M 146.496094 224.492188 L 152.351562 210.277344 C 144.699219 227.871094 116.847656 230.464844 100.484375 229.1875 C 89.570312 228.335938 79.09375 225.902344 69.035156 221.847656 C 65.832031 220.554688 62.164062 222.097656 60.847656 225.292969 L 59.777344 227.898438 C 59.109375 229.519531 59.117188 231.152344 59.804688 232.761719 C 60.488281 234.375 61.65625 235.519531 63.289062 236.164062 C 82.816406 243.894531 107.429688 246.789062 127.015625 240.113281 C 135.101562 237.355469 142.886719 232.722656 146.441406 224.625 C 146.460938 224.578125 146.476562 224.539062 146.496094 224.492188 " fill-opacity="1" fill-rule="evenodd"/><path fill="#f7b518" d="M 166.925781 213.636719 L 154.519531 204.554688 C 170.214844 215.582031 195.339844 203.277344 208.636719 193.652344 C 217.503906 187.238281 225.179688 179.695312 231.648438 170.996094 C 233.710938 168.222656 237.644531 167.628906 240.433594 169.667969 L 242.707031 171.332031 C 244.117188 172.367188 244.964844 173.765625 245.21875 175.5 C 245.476562 177.230469 245.074219 178.816406 244.019531 180.214844 C 231.382812 196.996094 211.882812 212.296875 191.691406 216.8125 C 183.355469 218.675781 174.292969 218.777344 167.039062 213.71875 C 167 213.691406 166.964844 213.664062 166.925781 213.636719 " fill-opacity="1" fill-rule="evenodd"/><path fill="#f29500" d="M 248.917969 216.746094 L 245.339844 199.476562 C 250.222656 220.9375 281.066406 229.789062 299.785156 231.828125 C 312.269531 233.191406 324.597656 232.675781 336.796875 230.246094 C 340.683594 229.472656 344.492188 231.992188 345.296875 235.875 L 345.949219 239.035156 C 346.355469 241.007812 346 242.84375 344.882812 244.519531 C 343.769531 246.191406 342.210938 247.226562 340.238281 247.609375 C 316.574219 252.171875 288.210938 250.195312 267.554688 238.5 C 259.027344 233.675781 251.234375 226.792969 248.953125 216.910156 C 248.9375 216.851562 248.925781 216.804688 248.917969 216.746094 " fill-opacity="1" fill-rule="evenodd"/><path fill="#efcc54" d="M 215.382812 235.46875 L 203.859375 222.117188 C 218.5625 238.492188 249.816406 231.222656 267.164062 223.898438 C 278.734375 219.015625 289.257812 212.566406 298.734375 204.507812 C 301.753906 201.9375 306.300781 202.289062 308.894531 205.292969 L 311.003906 207.738281 C 312.316406 209.257812 312.898438 211.039062 312.738281 213.042969 C 312.578125 215.046875 311.71875 216.710938 310.179688 218.003906 C 291.726562 233.5 265.984375 245.574219 242.25 245.410156 C 232.449219 245.339844 222.292969 243.121094 215.492188 235.59375 C 215.453125 235.550781 215.421875 235.511719 215.382812 235.46875 " fill-opacity="1" fill-rule="evenodd"/><path fill="#de9210" d="M 289.828125 229.164062 L 305.101562 220.347656 C 285.832031 230.976562 258.707031 213.832031 244.734375 201.210938 C 235.414062 192.792969 227.59375 183.242188 221.292969 172.515625 C 219.285156 169.097656 214.871094 167.933594 211.4375 169.917969 L 208.640625 171.53125 C 206.902344 172.535156 205.765625 174.027344 205.257812 175.972656 C 204.753906 177.917969 205.015625 179.773438 206.042969 181.5 C 218.378906 202.203125 238.71875 222.066406 261.191406 229.71875 C 270.46875 232.875 280.789062 234.117188 289.6875 229.246094 C 289.734375 229.21875 289.777344 229.195312 289.828125 229.164062 " fill-opacity="1" fill-rule="evenodd"/><path fill="#f7b518" d="M 215.183594 257.402344 L 200.953125 246.988281 C 218.960938 259.636719 247.777344 245.519531 263.035156 234.480469 C 273.210938 227.121094 282.011719 218.46875 289.4375 208.488281 C 291.800781 205.304688 296.3125 204.625 299.511719 206.96875 L 302.117188 208.875 C 303.738281 210.0625 304.707031 211.667969 305.003906 213.65625 C 305.292969 215.644531 304.832031 217.457031 303.625 219.066406 C 289.128906 238.316406 266.757812 255.867188 243.59375 261.046875 C 234.03125 263.183594 223.636719 263.304688 215.316406 257.5 C 215.269531 257.46875 215.230469 257.4375 215.183594 257.402344 " fill-opacity="1" fill-rule="evenodd"/><path fill="#f7b518" d="M 240.246094 203.617188 L 249.261719 188.460938 C 237.644531 207.152344 205.601562 205.449219 187.242188 201.265625 C 174.996094 198.476562 163.507812 193.964844 152.769531 187.6875 C 149.347656 185.6875 144.929688 186.828125 142.90625 190.234375 L 141.253906 193.007812 C 140.226562 194.734375 139.964844 196.59375 140.472656 198.539062 C 140.980469 200.480469 142.117188 201.972656 143.855469 202.976562 C 164.734375 215.011719 192.1875 222.402344 215.527344 218.09375 C 225.164062 216.316406 234.777344 212.359375 240.160156 203.757812 C 240.191406 203.710938 240.21875 203.667969 240.246094 203.617188 " fill-opacity="1" fill-rule="evenodd"/><path fill="#efcc54" d="M 250.121094 234.414062 L 256.539062 220.574219 C 248.195312 237.683594 220.476562 239.050781 204.308594 237.074219 C 193.527344 235.757812 183.246094 232.894531 173.453125 228.441406 C 170.332031 227.023438 166.632812 228.394531 165.1875 231.503906 L 164.011719 234.039062 C 163.28125 235.617188 163.21875 237.238281 163.828125 238.863281 C 164.4375 240.492188 165.546875 241.675781 167.132812 242.382812 C 186.160156 250.894531 210.433594 254.824219 230.136719 249.054688 C 238.269531 246.675781 246.1875 242.417969 250.058594 234.542969 C 250.082031 234.496094 250.101562 234.460938 250.121094 234.414062 " fill-opacity="1" fill-rule="evenodd"/><path fill="#efcc54" d="M 219.519531 227.234375 L 226.234375 210.925781 C 217.457031 231.109375 185.507812 234.085938 166.734375 232.621094 C 154.214844 231.644531 142.195312 228.851562 130.65625 224.199219 C 126.980469 222.71875 122.777344 224.488281 121.265625 228.15625 L 120.035156 231.140625 C 119.269531 233 119.28125 234.875 120.066406 236.726562 C 120.851562 238.574219 122.191406 239.882812 124.0625 240.625 C 146.464844 249.496094 174.703125 252.8125 197.167969 245.15625 C 206.445312 241.996094 215.378906 236.679688 219.453125 227.386719 C 219.476562 227.335938 219.496094 227.289062 219.519531 227.234375 " fill-opacity="1" fill-rule="evenodd"/><path fill="#f7b518" d="M 242.90625 212.75 L 228.675781 202.335938 C 246.683594 214.984375 275.503906 200.867188 290.757812 189.828125 C 300.933594 182.46875 309.738281 173.816406 317.160156 163.835938 C 319.527344 160.652344 324.035156 159.972656 327.234375 162.3125 L 329.839844 164.222656 C 331.460938 165.410156 332.433594 167.015625 332.726562 169 C 333.019531 170.988281 332.558594 172.808594 331.351562 174.414062 C 316.851562 193.664062 294.484375 211.214844 271.320312 216.394531 C 261.753906 218.53125 251.359375 218.652344 243.039062 212.847656 C 242.996094 212.8125 242.957031 212.785156 242.90625 212.75 " fill-opacity="1" fill-rule="evenodd"/><path fill="#f29500" d="M 210.703125 167.472656 L 213.820312 152.417969 C 209.566406 171.125 182.675781 178.839844 166.359375 180.621094 C 155.480469 181.808594 144.730469 181.359375 134.09375 179.242188 C 130.707031 178.566406 127.390625 180.761719 126.691406 184.148438 L 126.121094 186.90625 C 125.765625 188.621094 126.078125 190.222656 127.046875 191.683594 C 128.019531 193.140625 129.378906 194.042969 131.101562 194.375 C 151.726562 198.351562 176.449219 196.628906 194.457031 186.4375 C 201.890625 182.230469 208.683594 176.230469 210.675781 167.613281 C 210.683594 167.5625 210.691406 167.523438 210.703125 167.472656 " fill-opacity="1" fill-rule="evenodd"/><path fill="#efcc54" d="M 160.597656 185.226562 L 165.152344 179.949219 C 159.339844 186.421875 146.984375 183.546875 140.125 180.652344 C 135.554688 178.71875 131.390625 176.171875 127.644531 172.984375 C 126.453125 171.972656 124.652344 172.109375 123.628906 173.296875 L 122.796875 174.261719 C 122.273438 174.863281 122.046875 175.566406 122.109375 176.359375 C 122.171875 177.152344 122.511719 177.808594 123.121094 178.320312 C 130.417969 184.449219 140.59375 189.222656 149.976562 189.15625 C 153.851562 189.128906 157.863281 188.25 160.554688 185.273438 C 160.570312 185.257812 160.582031 185.242188 160.597656 185.226562 " fill-opacity="1" fill-rule="evenodd"/><path fill="#de9210" d="M 168.46875 233.910156 L 155.160156 226.222656 C 171.953125 235.488281 195.601562 220.542969 207.78125 209.539062 C 215.90625 202.203125 222.722656 193.878906 228.214844 184.53125 C 229.964844 181.550781 233.8125 180.535156 236.804688 182.261719 L 239.242188 183.667969 C 240.757812 184.546875 241.75 185.847656 242.191406 187.542969 C 242.632812 189.238281 242.402344 190.855469 241.507812 192.359375 C 230.753906 210.40625 213.023438 227.722656 193.433594 234.390625 C 185.347656 237.144531 176.351562 238.226562 168.59375 233.980469 C 168.550781 233.957031 168.515625 233.933594 168.46875 233.910156 " fill-opacity="1" fill-rule="evenodd"/><path fill="#f7b518" d="M 223.988281 204.8125 L 236.394531 195.730469 C 220.699219 206.757812 195.574219 194.453125 182.277344 184.828125 C 173.40625 178.414062 165.734375 170.871094 159.261719 162.171875 C 157.203125 159.398438 153.269531 158.804688 150.480469 160.84375 L 148.207031 162.507812 C 146.796875 163.542969 145.949219 164.941406 145.695312 166.675781 C 145.4375 168.40625 145.839844 169.992188 146.894531 171.390625 C 159.53125 188.171875 179.03125 203.472656 199.222656 207.988281 C 207.558594 209.851562 216.621094 209.957031 223.875 204.894531 C 223.914062 204.867188 223.949219 204.84375 223.988281 204.8125 " fill-opacity="1" fill-rule="evenodd"/><path fill="#f7b518" d="M 211.691406 211.640625 L 203.832031 198.429688 C 213.960938 214.71875 241.894531 213.234375 257.898438 209.589844 C 268.570312 207.160156 278.585938 203.226562 287.945312 197.753906 C 290.925781 196.011719 294.777344 197.003906 296.546875 199.972656 L 297.984375 202.394531 C 298.878906 203.898438 299.109375 205.515625 298.667969 207.210938 C 298.222656 208.90625 297.234375 210.207031 295.714844 211.082031 C 277.519531 221.570312 253.585938 228.015625 233.238281 224.261719 C 224.835938 222.710938 216.460938 219.257812 211.765625 211.761719 C 211.742188 211.722656 211.71875 211.683594 211.691406 211.640625 " fill-opacity="1" fill-rule="evenodd"/><path fill="#efcc54" d="M 194.753906 188.71875 L 189.15625 176.652344 C 196.429688 191.566406 220.59375 192.757812 234.683594 191.039062 C 244.082031 189.890625 253.046875 187.394531 261.585938 183.511719 C 264.304688 182.273438 267.53125 183.472656 268.789062 186.183594 L 269.8125 188.390625 C 270.449219 189.765625 270.503906 191.175781 269.972656 192.597656 C 269.441406 194.015625 268.476562 195.046875 267.089844 195.664062 C 250.507812 203.082031 229.347656 206.511719 212.171875 201.480469 C 205.082031 199.40625 198.179688 195.695312 194.804688 188.828125 C 194.785156 188.789062 194.769531 188.757812 194.753906 188.71875 " fill-opacity="1" fill-rule="evenodd"/><g clip-path="url(#e1c67a32b0)"><path fill="#efcc54" d="M 265.039062 197.035156 L 259.183594 182.816406 C 266.832031 200.410156 294.6875 203.003906 311.050781 201.726562 C 321.960938 200.875 332.441406 198.441406 342.496094 194.386719 C 345.703125 193.097656 349.367188 194.640625 350.683594 197.835938 L 351.757812 200.4375 C 352.421875 202.058594 352.414062 203.691406 351.730469 205.304688 C 351.046875 206.917969 349.875 208.058594 348.25 208.703125 C 328.714844 216.4375 304.101562 219.328125 284.519531 212.65625 C 276.433594 209.898438 268.644531 205.265625 265.09375 197.164062 C 265.074219 197.121094 265.054688 197.078125 265.039062 197.035156 " fill-opacity="1" fill-rule="evenodd"/></g><path fill="#f7b518" d="M 209.371094 219.601562 L 221.777344 210.523438 C 206.078125 221.546875 180.957031 209.242188 167.660156 199.621094 C 158.789062 193.203125 151.117188 185.664062 144.648438 176.960938 C 142.582031 174.1875 138.652344 173.59375 135.863281 175.636719 L 133.589844 177.296875 C 132.175781 178.332031 131.332031 179.730469 131.078125 181.464844 C 130.820312 183.199219 131.222656 184.78125 132.277344 186.179688 C 144.914062 202.960938 164.414062 218.261719 184.605469 222.777344 C 192.941406 224.640625 202.003906 224.746094 209.253906 219.683594 C 209.296875 219.65625 209.332031 219.632812 209.371094 219.601562 " fill-opacity="1" fill-rule="evenodd"/><path fill="#f29500" d="M 126.8125 201.03125 L 130.386719 183.761719 C 125.507812 205.21875 94.660156 214.070312 75.941406 216.109375 C 63.460938 217.472656 51.128906 216.960938 38.929688 214.53125 C 35.042969 213.757812 31.238281 216.273438 30.433594 220.15625 L 29.78125 223.320312 C 29.371094 225.289062 29.730469 227.128906 30.84375 228.800781 C 31.957031 230.472656 33.519531 231.511719 35.492188 231.890625 C 59.152344 236.453125 87.515625 234.476562 108.171875 222.785156 C 116.703125 217.957031 124.496094 211.078125 126.777344 201.191406 C 126.789062 201.132812 126.800781 201.085938 126.8125 201.03125 " fill-opacity="1" fill-rule="evenodd"/><path fill="#efcc54" d="M 154.21875 209.863281 L 165.742188 196.515625 C 151.042969 212.886719 119.785156 205.613281 102.4375 198.289062 C 90.871094 193.40625 80.347656 186.957031 70.871094 178.902344 C 67.847656 176.335938 63.300781 176.683594 60.707031 179.683594 L 58.597656 182.128906 C 57.285156 183.652344 56.703125 185.433594 56.863281 187.4375 C 57.027344 189.4375 57.882812 191.105469 59.421875 192.398438 C 77.878906 207.894531 103.621094 219.964844 127.355469 219.800781 C 137.152344 219.734375 147.308594 217.515625 154.109375 209.984375 C 154.148438 209.945312 154.183594 209.90625 154.21875 209.863281 " fill-opacity="1" fill-rule="evenodd"/><path fill="#de9210" d="M 104.117188 222.171875 L 88.84375 213.351562 C 108.113281 223.980469 135.238281 206.835938 149.214844 194.214844 C 158.535156 185.796875 166.351562 176.246094 172.65625 165.523438 C 174.664062 162.105469 179.074219 160.941406 182.507812 162.921875 L 185.304688 164.535156 C 187.042969 165.542969 188.179688 167.03125 188.6875 168.976562 C 189.195312 170.921875 188.929688 172.777344 187.902344 174.503906 C 175.566406 195.207031 155.226562 215.074219 132.753906 222.722656 C 123.480469 225.882812 113.15625 227.125 104.261719 222.25 C 104.210938 222.222656 104.167969 222.199219 104.117188 222.171875 " fill-opacity="1" fill-rule="evenodd"/><path fill="#f7b518" d="M 104.371094 226.757812 L 118.601562 216.339844 C 100.59375 228.988281 71.773438 214.871094 56.519531 203.832031 C 46.34375 196.472656 37.539062 187.824219 30.117188 177.839844 C 27.753906 174.660156 23.242188 173.976562 20.042969 176.320312 L 17.4375 178.226562 C 15.816406 179.414062 14.847656 181.019531 14.554688 183.007812 C 14.257812 184.996094 14.722656 186.8125 15.929688 188.417969 C 30.425781 207.667969 52.796875 225.222656 75.960938 230.398438 C 85.523438 232.539062 95.917969 232.65625 104.238281 226.851562 C 104.285156 226.820312 104.324219 226.792969 104.371094 226.757812 " fill-opacity="1" fill-rule="evenodd"/><path fill="#f7b518" d="M 136.050781 209.585938 L 127.035156 194.429688 C 138.652344 213.117188 170.695312 211.414062 189.054688 207.234375 C 201.296875 204.445312 212.785156 199.933594 223.523438 193.65625 C 226.945312 191.652344 231.363281 192.792969 233.390625 196.203125 L 235.042969 198.976562 C 236.070312 200.703125 236.332031 202.558594 235.824219 204.503906 C 235.316406 206.449219 234.179688 207.9375 232.4375 208.941406 C 211.5625 220.980469 184.109375 228.371094 160.765625 224.0625 C 151.128906 222.285156 141.519531 218.324219 136.136719 209.726562 C 136.105469 209.675781 136.078125 209.636719 136.050781 209.585938 " fill-opacity="1" fill-rule="evenodd"/><path fill="#efcc54" d="M 116.066406 217.851562 L 109.648438 204.015625 C 117.992188 221.121094 145.714844 222.492188 161.878906 220.515625 C 172.660156 219.199219 182.941406 216.332031 192.738281 211.878906 C 195.859375 210.460938 199.558594 211.832031 201 214.945312 L 202.175781 217.476562 C 202.90625 219.054688 202.96875 220.675781 202.363281 222.304688 C 201.75 223.929688 200.640625 225.113281 199.054688 225.824219 C 180.03125 234.332031 155.753906 238.265625 136.054688 232.492188 C 127.917969 230.113281 120 225.855469 116.128906 217.980469 C 116.105469 217.9375 116.089844 217.894531 116.066406 217.851562 " fill-opacity="1" fill-rule="evenodd"/><path fill="#efcc54" d="M 132.324219 229.921875 L 125.605469 213.613281 C 134.382812 233.792969 166.332031 236.769531 185.105469 235.304688 C 197.625 234.328125 209.648438 231.535156 221.183594 226.886719 C 224.859375 225.402344 229.066406 227.175781 230.574219 230.839844 L 231.804688 233.824219 C 232.570312 235.683594 232.558594 237.558594 231.773438 239.410156 C 230.988281 241.257812 229.648438 242.570312 227.777344 243.308594 C 205.375 252.179688 177.136719 255.496094 154.671875 247.839844 C 145.394531 244.679688 136.460938 239.363281 132.386719 230.074219 C 132.363281 230.019531 132.34375 229.972656 132.324219 229.921875 " fill-opacity="1" fill-rule="evenodd"/><path fill="#f7b518" d="M 147.617188 242.003906 L 161.847656 231.585938 C 143.839844 244.234375 115.023438 230.117188 99.765625 219.082031 C 89.59375 211.722656 80.789062 203.070312 73.367188 193.089844 C 71 189.90625 66.488281 189.222656 63.289062 191.566406 L 60.683594 193.472656 C 59.0625 194.660156 58.09375 196.265625 57.800781 198.253906 C 57.503906 200.242188 57.96875 202.058594 59.175781 203.664062 C 73.675781 222.914062 96.042969 240.46875 119.207031 245.644531 C 128.769531 247.785156 139.164062 247.902344 147.484375 242.097656 C 147.53125 242.066406 147.570312 242.039062 147.617188 242.003906 " fill-opacity="1" fill-rule="evenodd"/><path fill="#f29500" d="M 192.28125 189.519531 L 194.757812 177.5625 C 191.378906 192.417969 170.027344 198.542969 157.070312 199.957031 C 148.429688 200.898438 139.894531 200.542969 131.449219 198.863281 C 128.757812 198.328125 126.125 200.070312 125.566406 202.757812 L 125.117188 204.949219 C 124.832031 206.308594 125.082031 207.582031 125.851562 208.742188 C 126.625 209.898438 127.707031 210.617188 129.070312 210.878906 C 145.449219 214.039062 165.082031 212.671875 179.378906 204.578125 C 185.28125 201.234375 190.675781 196.472656 192.257812 189.628906 C 192.265625 189.589844 192.273438 189.558594 192.28125 189.519531 " fill-opacity="1" fill-rule="evenodd"/><path fill="#efcc54" d="M 215.460938 203.882812 L 223.4375 194.640625 C 213.261719 205.976562 191.625 200.941406 179.621094 195.871094 C 171.609375 192.492188 164.328125 188.027344 157.765625 182.449219 C 155.675781 180.671875 152.527344 180.914062 150.734375 182.992188 L 149.273438 184.6875 C 148.363281 185.738281 147.960938 186.972656 148.070312 188.359375 C 148.183594 189.746094 148.777344 190.898438 149.84375 191.792969 C 162.617188 202.519531 180.4375 210.878906 196.867188 210.761719 C 203.648438 210.714844 210.679688 209.179688 215.386719 203.96875 C 215.414062 203.9375 215.4375 203.914062 215.460938 203.882812 " fill-opacity="1" fill-rule="evenodd"/><path fill="#de9210" d="M 163.929688 199.519531 L 153.359375 193.414062 C 166.699219 200.769531 185.472656 188.902344 195.148438 180.167969 C 201.597656 174.339844 207.011719 167.730469 211.371094 160.308594 C 212.761719 157.941406 215.816406 157.136719 218.191406 158.507812 L 220.128906 159.625 C 221.332031 160.320312 222.121094 161.355469 222.46875 162.699219 C 222.820312 164.042969 222.640625 165.328125 221.925781 166.527344 C 213.386719 180.855469 199.308594 194.605469 183.753906 199.902344 C 177.332031 202.085938 170.1875 202.949219 164.03125 199.574219 C 163.996094 199.554688 163.964844 199.539062 163.929688 199.519531 " fill-opacity="1" fill-rule="evenodd"/><path fill="#f7b518" d="M 202.832031 219.167969 L 212.683594 211.957031 C 200.21875 220.710938 180.269531 210.941406 169.707031 203.300781 C 162.667969 198.203125 156.570312 192.21875 151.433594 185.308594 C 149.796875 183.105469 146.675781 182.632812 144.460938 184.257812 L 142.65625 185.574219 C 141.53125 186.398438 140.863281 187.507812 140.660156 188.882812 C 140.457031 190.261719 140.777344 191.515625 141.613281 192.628906 C 151.648438 205.953125 167.132812 218.105469 183.164062 221.6875 C 189.785156 223.167969 196.980469 223.25 202.738281 219.234375 C 202.773438 219.210938 202.800781 219.191406 202.832031 219.167969 " fill-opacity="1" fill-rule="evenodd"/><path fill="#f7b518" d="M 198.25 181.835938 L 192.011719 171.34375 C 200.054688 184.28125 222.234375 183.101562 234.941406 180.207031 C 243.417969 178.277344 251.367188 175.152344 258.800781 170.808594 C 261.171875 169.425781 264.226562 170.210938 265.632812 172.570312 L 266.773438 174.492188 C 267.488281 175.6875 267.667969 176.972656 267.316406 178.320312 C 266.964844 179.664062 266.175781 180.695312 264.972656 181.390625 C 250.523438 189.722656 231.515625 194.835938 215.359375 191.855469 C 208.691406 190.625 202.039062 187.886719 198.3125 181.933594 C 198.289062 181.898438 198.273438 181.871094 198.25 181.835938 " fill-opacity="1" fill-rule="evenodd"/><path fill="#efcc54" d="M 191.417969 203.152344 L 186.972656 193.574219 C 192.75 205.414062 211.9375 206.363281 223.128906 204.996094 C 230.589844 204.082031 237.707031 202.101562 244.484375 199.019531 C 246.648438 198.035156 249.207031 198.984375 250.207031 201.136719 L 251.019531 202.890625 C 251.527344 203.984375 251.570312 205.105469 251.148438 206.234375 C 250.726562 207.359375 249.960938 208.179688 248.859375 208.667969 C 235.691406 214.558594 218.886719 217.28125 205.25 213.285156 C 199.621094 211.636719 194.136719 208.691406 191.457031 203.242188 C 191.445312 203.210938 191.429688 203.183594 191.417969 203.152344 " fill-opacity="1" fill-rule="evenodd"/><path fill="#efcc54" d="M 212.628906 196.78125 L 207.980469 185.492188 C 214.058594 199.460938 236.171875 201.519531 249.167969 200.503906 C 257.832031 199.828125 266.15625 197.898438 274.140625 194.679688 C 276.683594 193.652344 279.59375 194.878906 280.640625 197.414062 L 281.492188 199.480469 C 282.023438 200.769531 282.015625 202.066406 281.472656 203.347656 C 280.925781 204.628906 280 205.535156 278.707031 206.046875 C 263.195312 212.1875 243.652344 214.484375 228.101562 209.183594 C 221.679688 206.996094 215.496094 203.316406 212.675781 196.882812 C 212.660156 196.847656 212.644531 196.816406 212.628906 196.78125 " fill-opacity="1" fill-rule="evenodd"/><path fill="#f7b518" d="M 196.410156 188.15625 L 206.261719 180.945312 C 193.792969 189.703125 173.847656 179.929688 163.289062 172.289062 C 156.242188 167.195312 150.148438 161.207031 145.011719 154.296875 C 143.375 152.097656 140.253906 151.625 138.039062 153.246094 L 136.234375 154.566406 C 135.113281 155.386719 134.441406 156.496094 134.238281 157.875 C 134.035156 159.25 134.355469 160.507812 135.191406 161.617188 C 145.226562 174.945312 160.710938 187.09375 176.742188 190.679688 C 183.363281 192.15625 190.558594 192.242188 196.316406 188.222656 C 196.347656 188.199219 196.378906 188.179688 196.410156 188.15625 " fill-opacity="1" fill-rule="evenodd"/><path fill="#f29500" d="M 131.300781 190.628906 L 134.140625 176.914062 C 130.265625 193.953125 105.773438 200.984375 90.90625 202.605469 C 80.996094 203.683594 71.203125 203.277344 61.515625 201.347656 C 58.429688 200.734375 55.410156 202.734375 54.769531 205.816406 L 54.25 208.328125 C 53.925781 209.890625 54.210938 211.351562 55.097656 212.679688 C 55.984375 214.007812 57.222656 214.832031 58.789062 215.132812 C 77.578125 218.757812 100.097656 217.1875 116.5 207.902344 C 123.273438 204.070312 129.460938 198.605469 131.273438 190.753906 C 131.285156 190.710938 131.292969 190.671875 131.300781 190.628906 " fill-opacity="1" fill-rule="evenodd"/><path fill="#efcc54" d="M 157.929688 205.496094 L 167.078125 194.894531 C 155.40625 207.898438 130.585938 202.121094 116.8125 196.304688 C 107.625 192.425781 99.269531 187.308594 91.742188 180.910156 C 89.34375 178.871094 85.734375 179.148438 83.675781 181.53125 L 82 183.472656 C 80.957031 184.679688 80.496094 186.09375 80.621094 187.6875 C 80.75 189.277344 81.433594 190.601562 82.65625 191.625 C 97.308594 203.933594 117.75 213.519531 136.597656 213.386719 C 144.378906 213.335938 152.441406 211.570312 157.84375 205.59375 C 157.871094 205.558594 157.898438 205.53125 157.929688 205.496094 " fill-opacity="1" fill-rule="evenodd"/><path fill="#de9210" d="M 98.8125 200.488281 L 86.6875 193.488281 C 101.988281 201.925781 123.527344 188.3125 134.625 178.289062 C 142.027344 171.605469 148.234375 164.023438 153.238281 155.507812 C 154.832031 152.792969 158.335938 151.867188 161.0625 153.441406 L 163.28125 154.722656 C 164.664062 155.523438 165.566406 156.707031 165.96875 158.25 C 166.371094 159.792969 166.160156 161.269531 165.34375 162.640625 C 155.550781 179.078125 139.398438 194.855469 121.554688 200.929688 C 114.1875 203.4375 105.992188 204.421875 98.925781 200.554688 C 98.886719 200.53125 98.855469 200.511719 98.8125 200.488281 " fill-opacity="1" fill-rule="evenodd"/><path fill="#f7b518" d="M 158.085938 222.914062 L 169.386719 214.644531 C 155.089844 224.683594 132.207031 213.476562 120.089844 204.710938 C 112.011719 198.867188 105.023438 191.996094 99.125 184.070312 C 97.246094 181.542969 93.667969 181.003906 91.125 182.863281 L 89.058594 184.375 C 87.769531 185.320312 87 186.59375 86.765625 188.171875 C 86.535156 189.753906 86.902344 191.195312 87.859375 192.46875 C 99.371094 207.753906 117.132812 221.695312 135.527344 225.804688 C 143.121094 227.503906 151.375 227.597656 157.980469 222.988281 C 158.019531 222.960938 158.050781 222.941406 158.085938 222.914062 " fill-opacity="1" fill-rule="evenodd"/><path fill="#f7b518" d="M 138.1875 180.203125 L 131.027344 168.167969 C 140.253906 183.007812 165.699219 181.65625 180.277344 178.335938 C 190 176.121094 199.121094 172.539062 207.648438 167.554688 C 210.367188 165.964844 213.875 166.867188 215.484375 169.574219 L 216.792969 171.777344 C 217.609375 173.148438 217.820312 174.625 217.414062 176.167969 C 217.011719 177.710938 216.109375 178.894531 214.726562 179.695312 C 198.148438 189.25 176.347656 195.121094 157.8125 191.699219 C 150.160156 190.289062 142.53125 187.144531 138.253906 180.316406 C 138.230469 180.277344 138.210938 180.242188 138.1875 180.203125 " fill-opacity="1" fill-rule="evenodd"/><path fill="#efcc54" d="M 130.34375 204.65625 L 125.25 193.667969 C 131.875 207.253906 153.886719 208.339844 166.722656 206.773438 C 175.285156 205.726562 183.449219 203.449219 191.226562 199.914062 C 193.703125 198.789062 196.644531 199.875 197.789062 202.347656 L 198.722656 204.359375 C 199.300781 205.613281 199.351562 206.898438 198.867188 208.191406 C 198.382812 209.484375 197.503906 210.421875 196.242188 210.984375 C 181.136719 217.742188 161.859375 220.863281 146.214844 216.28125 C 139.757812 214.390625 133.46875 211.011719 130.394531 204.757812 C 130.375 204.722656 130.363281 204.691406 130.34375 204.65625 " fill-opacity="1" fill-rule="evenodd"/><path fill="#efcc54" d="M 154.648438 198.957031 L 149.3125 186.007812 C 156.28125 202.035156 181.652344 204.394531 196.558594 203.230469 C 206.5 202.457031 216.046875 200.238281 225.207031 196.546875 C 228.128906 195.371094 231.46875 196.777344 232.667969 199.6875 L 233.640625 202.058594 C 234.25 203.535156 234.242188 205.023438 233.617188 206.492188 C 232.996094 207.960938 231.929688 209 230.445312 209.585938 C 212.65625 216.632812 190.234375 219.265625 172.390625 213.1875 C 165.027344 210.675781 157.933594 206.457031 154.695312 199.078125 C 154.679688 199.035156 154.664062 199 154.648438 198.957031 " fill-opacity="1" fill-rule="evenodd"/><path fill="#f7b518" d="M 144.132812 195.09375 L 155.433594 186.820312 C 141.132812 196.863281 118.25 185.652344 106.132812 176.890625 C 98.054688 171.042969 91.0625 164.175781 85.171875 156.246094 C 83.292969 153.722656 79.710938 153.179688 77.167969 155.039062 L 75.097656 156.554688 C 73.8125 157.496094 73.042969 158.773438 72.808594 160.351562 C 72.574219 161.929688 72.945312 163.375 73.902344 164.648438 C 85.414062 179.933594 103.175781 193.871094 121.570312 197.984375 C 129.164062 199.679688 137.417969 199.777344 144.027344 195.167969 C 144.0625 195.140625 144.09375 195.117188 144.132812 195.09375 " fill-opacity="1" fill-rule="evenodd"/><g clip-path="url(#d85cc56e5b)"><path fill="#f29500" d="M 161.644531 151.503906 L 159.171875 139.546875 C 162.550781 154.402344 183.902344 160.527344 196.855469 161.941406 C 205.496094 162.882812 214.035156 162.527344 222.476562 160.847656 C 225.167969 160.3125 227.800781 162.054688 228.359375 164.742188 L 228.8125 166.929688 C 229.09375 168.292969 228.84375 169.566406 228.074219 170.722656 C 227.300781 171.882812 226.222656 172.601562 224.855469 172.863281 C 208.476562 176.019531 188.847656 174.652344 174.546875 166.558594 C 168.644531 163.21875 163.25 158.457031 161.667969 151.613281 C 161.660156 151.574219 161.652344 151.539062 161.644531 151.503906 " fill-opacity="1" fill-rule="evenodd"/></g><path fill="#efcc54" d="M 201.433594 165.597656 L 197.816406 161.40625 C 202.429688 166.546875 212.242188 164.265625 217.6875 161.964844 C 221.320312 160.433594 224.625 158.40625 227.597656 155.878906 C 228.546875 155.070312 229.976562 155.183594 230.789062 156.125 L 231.449219 156.890625 C 231.863281 157.371094 232.046875 157.929688 231.996094 158.558594 C 231.945312 159.1875 231.675781 159.710938 231.191406 160.117188 C 225.398438 164.980469 217.316406 168.769531 209.867188 168.71875 C 206.789062 168.695312 203.601562 168 201.46875 165.636719 C 201.457031 165.625 201.445312 165.613281 201.433594 165.597656 " fill-opacity="1" fill-rule="evenodd"/><path fill="#de9210" d="M 195.183594 204.257812 L 205.753906 198.152344 C 192.414062 205.511719 173.636719 193.640625 163.964844 184.90625 C 157.515625 179.078125 152.101562 172.46875 147.742188 165.046875 C 146.351562 162.679688 143.296875 161.875 140.917969 163.246094 L 138.984375 164.363281 C 137.78125 165.058594 136.992188 166.089844 136.640625 167.4375 C 136.292969 168.785156 136.476562 170.070312 137.1875 171.261719 C 145.722656 185.59375 159.804688 199.34375 175.359375 204.640625 C 181.78125 206.824219 188.921875 207.683594 195.082031 204.3125 C 195.117188 204.292969 195.148438 204.277344 195.183594 204.257812 " fill-opacity="1" fill-rule="evenodd"/><path fill="#f7b518" d="M 151.097656 181.152344 L 141.246094 173.941406 C 153.710938 182.695312 173.660156 172.925781 184.21875 165.285156 C 191.261719 160.1875 197.355469 154.199219 202.492188 147.289062 C 204.132812 145.089844 207.253906 144.617188 209.464844 146.238281 L 211.269531 147.558594 C 212.394531 148.378906 213.0625 149.492188 213.265625 150.867188 C 213.46875 152.242188 213.152344 153.5 212.3125 154.613281 C 202.277344 167.9375 186.796875 180.085938 170.761719 183.671875 C 164.140625 185.152344 156.945312 185.234375 151.1875 181.21875 C 151.15625 181.195312 151.128906 181.175781 151.097656 181.152344 " fill-opacity="1" fill-rule="evenodd"/><path fill="#f7b518" d="M 160.859375 186.574219 L 167.101562 176.082031 C 159.058594 189.019531 136.878906 187.839844 124.171875 184.945312 C 115.695312 183.015625 107.742188 179.894531 100.3125 175.546875 C 97.941406 174.160156 94.882812 174.949219 93.480469 177.308594 L 92.339844 179.230469 C 91.628906 180.425781 91.445312 181.710938 91.796875 183.058594 C 92.148438 184.402344 92.9375 185.433594 94.140625 186.128906 C 108.589844 194.460938 127.59375 199.578125 143.753906 196.59375 C 150.421875 195.363281 157.074219 192.625 160.800781 186.671875 C 160.824219 186.636719 160.839844 186.609375 160.859375 186.574219 " fill-opacity="1" fill-rule="evenodd"/><path fill="#efcc54" d="M 174.3125 168.371094 L 178.753906 158.792969 C 172.980469 170.632812 153.792969 171.582031 142.601562 170.214844 C 135.140625 169.300781 128.023438 167.320312 121.242188 164.238281 C 119.082031 163.253906 116.519531 164.203125 115.523438 166.355469 L 114.707031 168.113281 C 114.203125 169.203125 114.160156 170.324219 114.582031 171.453125 C 115.003906 172.578125 115.773438 173.398438 116.871094 173.886719 C 130.039062 179.777344 146.839844 182.5 160.476562 178.503906 C 166.109375 176.855469 171.589844 173.910156 174.269531 168.457031 C 174.285156 168.429688 174.296875 168.402344 174.3125 168.371094 " fill-opacity="1" fill-rule="evenodd"/><path fill="#efcc54" d="M 118.5 174.976562 L 123.148438 163.6875 C 117.074219 177.65625 94.957031 179.714844 81.964844 178.703125 C 73.296875 178.023438 64.976562 176.09375 56.992188 172.875 C 54.445312 171.847656 51.535156 173.074219 50.492188 175.609375 L 49.640625 177.675781 C 49.109375 178.964844 49.117188 180.261719 49.660156 181.542969 C 50.203125 182.824219 51.132812 183.730469 52.425781 184.242188 C 67.933594 190.382812 87.480469 192.679688 103.03125 187.378906 C 109.453125 185.191406 115.632812 181.511719 118.457031 175.078125 C 118.472656 175.042969 118.484375 175.011719 118.5 174.976562 " fill-opacity="1" fill-rule="evenodd"/><path fill="#f7b518" d="M 162.703125 192.894531 L 152.851562 185.683594 C 165.316406 194.441406 185.265625 184.667969 195.824219 177.027344 C 202.867188 171.933594 208.960938 165.945312 214.101562 159.035156 C 215.738281 156.835938 218.859375 156.363281 221.074219 157.984375 L 222.878906 159.300781 C 224 160.125 224.671875 161.238281 224.875 162.613281 C 225.078125 163.988281 224.757812 165.246094 223.921875 166.355469 C 213.886719 179.679688 198.402344 191.832031 182.371094 195.417969 C 175.75 196.898438 168.554688 196.980469 162.792969 192.960938 C 162.761719 192.941406 162.734375 192.917969 162.703125 192.894531 " fill-opacity="1" fill-rule="evenodd"/><path fill="#f29500" d="M 228.261719 178.148438 L 225.421875 164.433594 C 229.300781 181.476562 253.792969 188.503906 268.65625 190.125 C 278.570312 191.203125 288.359375 190.796875 298.046875 188.867188 C 301.132812 188.253906 304.152344 190.253906 304.792969 193.335938 L 305.3125 195.847656 C 305.636719 197.410156 305.351562 198.871094 304.464844 200.199219 C 303.582031 201.527344 302.339844 202.351562 300.777344 202.652344 C 281.988281 206.273438 259.464844 204.707031 243.0625 195.421875 C 236.289062 191.589844 230.101562 186.125 228.289062 178.273438 C 228.277344 178.230469 228.269531 178.191406 228.261719 178.148438 " fill-opacity="1" fill-rule="evenodd"/><path fill="#efcc54" d="M 206.496094 185.160156 L 197.347656 174.5625 C 209.023438 187.5625 233.839844 181.789062 247.617188 175.972656 C 256.800781 172.09375 265.160156 166.972656 272.683594 160.574219 C 275.082031 158.539062 278.695312 158.816406 280.753906 161.199219 L 282.425781 163.140625 C 283.46875 164.347656 283.933594 165.761719 283.804688 167.355469 C 283.675781 168.945312 282.996094 170.269531 281.773438 171.292969 C 267.121094 183.597656 246.675781 193.183594 227.832031 193.054688 C 220.050781 193 211.984375 191.238281 206.585938 185.257812 C 206.554688 185.226562 206.527344 185.195312 206.496094 185.160156 " fill-opacity="1" fill-rule="evenodd"/><path fill="#de9210" d="M 255.601562 193.492188 L 267.726562 186.488281 C 252.429688 194.929688 230.886719 181.3125 219.792969 171.292969 C 212.390625 164.609375 206.183594 157.023438 201.179688 148.507812 C 199.582031 145.792969 196.082031 144.871094 193.355469 146.445312 L 191.132812 147.726562 C 189.75 148.523438 188.847656 149.707031 188.445312 151.253906 C 188.046875 152.796875 188.253906 154.269531 189.070312 155.640625 C 198.863281 172.082031 215.019531 187.855469 232.859375 193.929688 C 240.226562 196.4375 248.421875 197.425781 255.488281 193.554688 C 255.527344 193.535156 255.5625 193.515625 255.601562 193.492188 " fill-opacity="1" fill-rule="evenodd"/><path fill="#f7b518" d="M 246.082031 198.578125 L 234.78125 190.304688 C 249.082031 200.347656 271.964844 189.140625 284.078125 180.375 C 292.160156 174.53125 299.148438 167.660156 305.042969 159.734375 C 306.921875 157.207031 310.503906 156.667969 313.042969 158.527344 L 315.113281 160.039062 C 316.402344 160.984375 317.167969 162.257812 317.402344 163.835938 C 317.636719 165.414062 317.269531 166.859375 316.308594 168.132812 C 304.796875 183.417969 287.035156 197.359375 268.640625 201.46875 C 261.046875 203.167969 252.792969 203.261719 246.1875 198.652344 C 246.148438 198.625 246.117188 198.605469 246.082031 198.578125 " fill-opacity="1" fill-rule="evenodd"/><path fill="#f7b518" d="M 220.925781 184.941406 L 228.085938 172.90625 C 218.859375 187.746094 193.414062 186.394531 178.835938 183.074219 C 169.113281 180.859375 159.992188 177.277344 151.464844 172.292969 C 148.746094 170.703125 145.238281 171.609375 143.628906 174.3125 L 142.320312 176.515625 C 141.503906 177.890625 141.292969 179.363281 141.699219 180.90625 C 142.101562 182.449219 143.003906 183.636719 144.386719 184.429688 C 160.964844 193.988281 182.765625 199.859375 201.300781 196.4375 C 208.953125 195.027344 216.582031 191.878906 220.859375 185.050781 C 220.882812 185.015625 220.902344 184.980469 220.925781 184.941406 " fill-opacity="1" fill-rule="evenodd"/><path fill="#efcc54" d="M 236.792969 191.507812 L 241.886719 180.515625 C 235.261719 194.101562 213.253906 195.1875 200.414062 193.621094 C 191.855469 192.574219 183.6875 190.300781 175.910156 186.765625 C 173.433594 185.636719 170.496094 186.726562 169.351562 189.195312 L 168.417969 191.210938 C 167.835938 192.460938 167.789062 193.746094 168.269531 195.039062 C 168.753906 196.332031 169.636719 197.273438 170.894531 197.835938 C 186.003906 204.59375 205.277344 207.714844 220.921875 203.132812 C 227.382812 201.242188 233.671875 197.859375 236.746094 191.605469 C 236.761719 191.574219 236.777344 191.542969 236.792969 191.507812 " fill-opacity="1" fill-rule="evenodd"/><path fill="#efcc54" d="M 223.886719 201.089844 L 229.21875 188.140625 C 222.25 204.164062 196.878906 206.527344 181.972656 205.363281 C 172.03125 204.585938 162.484375 202.371094 153.324219 198.679688 C 150.402344 197.5 147.066406 198.90625 145.867188 201.820312 L 144.890625 204.1875 C 144.28125 205.664062 144.289062 207.152344 144.914062 208.625 C 145.539062 210.089844 146.601562 211.132812 148.085938 211.71875 C 165.878906 218.765625 188.300781 221.398438 206.140625 215.316406 C 213.503906 212.808594 220.597656 208.585938 223.835938 201.210938 C 223.855469 201.167969 223.867188 201.132812 223.886719 201.089844 " fill-opacity="1" fill-rule="evenodd"/><path fill="#f7b518" d="M 211.742188 210.683594 L 200.441406 202.414062 C 214.738281 212.457031 237.621094 201.246094 249.738281 192.480469 C 257.816406 186.636719 264.808594 179.769531 270.703125 171.839844 C 272.582031 169.316406 276.164062 168.773438 278.703125 170.632812 L 280.773438 172.148438 C 282.058594 173.089844 282.828125 174.367188 283.0625 175.945312 C 283.296875 177.523438 282.929688 178.964844 281.96875 180.238281 C 270.457031 195.527344 252.695312 209.464844 234.300781 213.574219 C 226.707031 215.273438 218.453125 215.371094 211.847656 210.761719 C 211.808594 210.734375 211.777344 210.710938 211.742188 210.683594 " fill-opacity="1" fill-rule="evenodd"/></svg>